<?xml version="1.0" encoding="utf-8"?>
<!-- Generator: Adobe Illustrator 26.0.2, SVG Export Plug-In . SVG Version: 6.00 Build 0)  -->
<svg version="1.1" id="Слой_1" xmlns="http://www.w3.org/2000/svg" xmlns:xlink="http://www.w3.org/1999/xlink" x="0px" y="0px"
     viewBox="0 0 500 500" style="enable-background:new 0 0 500 500;" xml:space="preserve">
<style type="text/css">
	.st0{fill:#FFFFFF;}
	.st1{display:none;fill:#FFFFFF;}
	.st2{display:none;}
	.st3{display:inline;fill:#FFFFFF;}
</style>
    <g>
	<g>
		<path class="st0" d="M243.8,202c10.1,0,18.3,8.3,18.3,18.3V351c0,10.1-8.3,18.3-18.3,18.3s-18.3-8.3-18.3-18.3v-47h-52.9v47
			c0,10.1-8.3,18.3-18.3,18.3c-10.1,0-18.3-8.3-18.3-18.3v-47v-36.7v-47c0-10.1,8.3-18.3,18.3-18.3c10.1,0,18.3,8.3,18.3,18.3v47
			h52.9v-47C225.4,210.2,233.7,202,243.8,202 M243.8,193.3c-14.9,0-27,12.1-27,27v38.4h-35.7v-38.4c0-14.9-12.1-27-27-27
			c-14.9,0-27,12.1-27,27v47V304v47c0,14.9,12.1,27,27,27c14.9,0,27-12.1,27-27v-38.4h35.7V351c0,14.9,12.1,27,27,27
			c14.9,0,27-12.1,27-27V220.3C270.7,205.4,258.6,193.3,243.8,193.3L243.8,193.3z"/>
	</g>
        <g>
		<path class="st0" d="M302.2,202c10.1,0,18.3,8.3,18.3,18.3V351c0,10.1-8.3,18.3-18.3,18.3c-10.1,0-18.3-8.3-18.3-18.3V220.3
			C283.9,210.2,292.2,202,302.2,202 M302.2,193.3c-14.9,0-27,12.1-27,27V351c0,14.9,12.1,27,27,27c14.9,0,27-12.1,27-27V220.3
			C329.2,205.4,317.1,193.3,302.2,193.3L302.2,193.3z"/>
	</g>
        <g>
		<path class="st0" d="M360.7,202c10.1,0,18.3,8.3,18.3,18.3v54.9c1.2-2.6,2.8-5.1,5-7.3l8.5-8.5l49.7-49.7c3.6-3.6,8.3-5.3,13-5.3
			s9.4,1.8,13,5.3c3.6,3.6,5.3,8.3,5.3,13c0,4.7-1.8,9.4-5.3,13l-43.9,43.9c-3.2,3.2-3.2,8.4,0,11.6l43.9,43.9
			c7.1,7.1,7.1,18.8,0,25.9c-3.6,3.6-8.3,5.3-13,5.3s-9.4-1.8-13-5.3l-49.7-49.7l-8.5-8.5c-2.2-2.2-3.8-4.7-5-7.3V351
			c0,10.1-8.3,18.3-18.3,18.3c-10.1,0-18.3-8.3-18.3-18.3V220.3C342.4,210.2,350.6,202,360.7,202 M360.7,193.3
			c-14.9,0-27,12.1-27,27V351c0,14.9,12.1,27,27,27c14.9,0,27-12.1,27-27v-32.6l48.5,48.5c5.1,5.1,11.9,7.9,19.1,7.9
			c7.2,0,14-2.8,19.1-7.9c5.1-5.1,7.9-11.9,7.9-19.1s-2.8-14-7.9-19.1l-43.6-43.6l43.6-43.6c5.1-5.1,7.9-11.8,7.9-19.1
			c0-7.2-2.8-14-7.9-19.1c-5.1-5.1-11.8-7.9-19.1-7.9c-7.2,0-14,2.8-19.1,7.9L387.7,252v-31.7C387.7,205.4,375.6,193.3,360.7,193.3
			L360.7,193.3z"/>
	</g>
        <path class="st1" d="M253.2,227.8c-0.5-0.9-0.5-2.1,0-3c1.3-2.5,0.8-5.4-1-7.5c-6-6.6-11.8-12.7-15.8-16.5
		c-1.3-1.3-4.7-1.2-7.2,0.3c-5.8,3.6-11.6,6.4-17.8,8.4c-2.6,0.8-3.8,0-3.4-2.4c1-5.9,0.8-11.5-1-17.6c-1.6-5.6-3-11.5-2.6-14.7
		c0.4-2.5,1.3-5.4,2.5-8.5c3.7,6.4,7.7,5.7,11.9,8.5c3,2,5.5,4.3,7.2,7.1c0.5,3.3,1.7,4,3.7,2.5c2,1.7,4.1,1.9,6,0.1
		c1.3-0.9,2.2-1.9,2.8-2.9c1.5-3.2-0.4-9.2-3.5-17.1c-2.6-6.5-5.3-12.5-7-18.3l3.5-6c0.4-0.6-0.3-1.3-1-1l-7,3.1l4.5-7.5
		c0.6-0.9-0.2-1.7-1.2-1.2l-8.5,4.7c0.3-8.3-9.5-3.9-11.1-11.3c-1,0.3-1.2,1.5-1.1,3.1c-2.1-1.9-3-4.6-2.6-8
		c-2.1,1.3-2.1,5.3-1.7,10.1c-1.8-1.4-2.9-3.9-3.7-6.8c-0.7,2.2-0.6,5.4,0.1,8.9c-2.2-1.5-4.7-2.2-7.5-2.1c-0.8-0.5-1-1.5-1.2-2.5
		c-1.2,1-1.8,2.6-1.6,4.9c-0.7-0.7-1.2-1.4-1.6-2.3c-0.4,0.7-0.7,1.6-0.9,2.8c-1.6-1.2-2-3.1-1.7-5.5c-3.7,3.1-4.4,7.5-2.9,13
		c-3-0.4-5.8-0.3-8.5,0.7c-1.3,0.5-2.7,0.5-4.2,0.3l0.1,1.1c-1.1-0.2-1.7-0.7-2.3-1.1c0,0.8,0.4,1.6,1,2.5c-0.5,0.1-0.9,0.1-1.2,0
		c0.1,0.7,0.6,1.3,1.2,1.8c-0.9,0.2-1.8,0.1-2.5-0.3c0,1.8,1.1,3.6,2.7,5.2c-1.2-0.3-2.5-1.1-3.9-2.1c0.1,1.9,1.9,4,4.8,6.3
		c-3-0.5-5.6-0.5-7.3,1.2c0.7,0.1,1.4,0.3,1.9,0.7c-1.9,1-3.7,2.4-5.5,4c1.1,0.3,2.1,0.2,3.1-0.3c-1.2,1.7-2.9,3.4-4.9,5
		c0.5,0.4,1.3,0.5,2.1,0.4c-0.5,1.2-1.4,2.5-2.5,3.8c1.3-0.4,2.5-0.8,3.6-1.4c-0.2,2-2.3,4.1-4.9,6.3c-1.3,1.4-2.1,3-2.6,4.9
		l1.9-0.4c-1,1.8-1.4,3.7-1.3,5.7c2.3-1.6,5-1.9,8.1-1c-13.7,10.6-30.8,22-49.1,24.6c-12.2,1.7-20.7,6.3-25.4,14.5
		c-4.8-1-7.8-3.6-9.7-7.2c-8.8-16.5-25.7-13.3-37.7-0.3c-4.1,4.4-8.8,3.3-11.1,1.4c-0.7,2.5,0.4,4.2,5,4.3
		c-3.1,2.2-6.6,2.8-10.6,1.5c0.2,1.2,1.9,2.4,5.3,3.5c-3,0.9-5.9,0.7-8.9-0.4c4.2,6.9,11.9,6.7,16.4,2.7c-3.2,5.5-9,8.4-14.5,7.9
		c2.8,3.6,7.4,3.5,13.6,0.2c-3.6,3.5-7.4,6.4-11.4,8.7c4.5,1,9.1,1.1,13.8,0.2c0.4,0.6,0,1.5-0.5,2.4c1.3,0.1,2.7-0.1,4-0.7
		c1.3,1.1,3.2,1.2,5.2-0.3c5.5-2.3,10.5-7.2,15.1-14.1c0,0.7-0.2,1.7-0.7,2.7c6.3-3,6.2-9.2,9.5-10.4c-0.1,1-0.4,1.9-0.9,2.8
		c0.8-0.1,1.6-0.3,2.2-0.8c0.1,0.8,0.7,1.5,1.7,1.9c1-1.3,5-0.2,6-2.1c0.8,2.8,1.7,4.5,3.7,4.5c-2.5,8.2-1.1,15.5,4.4,22
		c1.6,1.7,2.6,3.9,2.9,6.3l-0.1,4.6c-2.3,5-6.6,10.4-11.6,15.9c-1.2,1.3-1.5,3.2-0.9,4.8c2.6,7,4.6,14.1,5.6,21.1l-0.1,4.8
		c2.1,2.5,3.9,4.9,4.1,6.7c-0.1,1.6-0.7,3.2-1.5,4.8c-1.3,2.3,11.2,9.4,11.3,5.6c0.1-0.9,0-1.8-0.4-2.7c0.5-1.1,0.7-3.1,0.6-5.5
		c0-1.4-0.5-2.8-1.3-4c-4.1-6.1-6.5-12.3-7.1-19.6c-0.3-2.5-0.2-4.8,0.3-7.4c1.1-6.1,7.4-9.4,13.1-13.4c-2.5,5-5.4,10-8.6,14.9
		c-1.7,2.2-1.3,4.4,0.9,6.7c3.4,6.5,6.2,12.8,8.3,18.8c-0.1,3.3,0.6,5.9,3,7c1.7,1.1,2.7,2.9,2.2,6.6c-0.4,1.7-0.6,3.3,0.4,3.8
		c7.7,4.2,11.4,4.8,11.3,1.4c0-1-0.5-1.9-1.2-2.6c0.6-5.2-0.8-8.6-3.4-10.8c-4.9-5.9-8.7-12.4-9.7-22.2c-0.1-3.7,0.9-6.6,2.8-8.7
		c7.9-7.7,14.4-15.3,18.5-22.8c2-3.5,2.7-8.8,2.4-15.7c3.9,1.4,8.1,1.5,12.5,0.7c9.1,1.5,18-1.5,26.8-7.3
		c11.5-2.5,21.6-6.6,29.5-13.4c4.4,0.6,7.9-0.2,10.2-2.7c7.4,0.6,13.4-6.1,18.8-15.5c2.8,0.1,11.5,10.9,12,15.1
		c0.1,2.6-1.2,5.1-3.6,7.6c-1.4,4.7,7,13.4,8.2,9.8c0.8-2.4,1.3-5.4,1.8-8.7c-0.4-2.5-0.2-4.7,0.7-6.5c4.4,4.2,8.7,8.7,9.2,5.1
		c0.3-1.9,0.5-3.9,0.3-6.1C254,230.6,253.9,229.1,253.2,227.8z M244,229.3c0.2-3.1-8-12.1-12.8-20.3c2.9-0.4,7.7,3.5,13.9,10.2
		C247.4,222.2,246.7,226,244,229.3z"/>
        <g class="st2">
		<path class="st3" d="M243.8,202c-10.1,0-18.3,8.3-18.3,18.3v47h-52.9v-47c0-10.1-8.3-18.3-18.3-18.3c-10.1,0-18.3,8.3-18.3,18.3
			v47V304v47c0,10.1,8.3,18.3,18.3,18.3c10.1,0,18.3-8.3,18.3-18.3v-47h52.9v47c0,10.1,8.3,18.3,18.3,18.3s18.3-8.3,18.3-18.3V220.3
			C262.1,210.2,253.9,202,243.8,202z"/>
	</g>
        <g class="st2">
		<path class="st3" d="M302.2,369.3L302.2,369.3c-10.1,0-18.3-8.3-18.3-18.3V220.3c0-10.1,8.3-18.3,18.3-18.3h0
			c10.1,0,18.3,8.3,18.3,18.3V351C320.6,361.1,312.3,369.3,302.2,369.3z"/>
	</g>
        <g class="st2">
		<path class="st3" d="M468.2,334.9L424.4,291c-3.2-3.2-3.2-8.4,0-11.6l43.9-43.9c3.6-3.6,5.3-8.3,5.3-13c0-4.7-1.8-9.4-5.3-13
			c-7.1-7.1-18.8-7.1-25.9,0l-49.7,49.7l-8.5,8.5c-2.2,2.2-3.8,4.7-5,7.3v-54.9c0-10.1-8.3-18.3-18.3-18.3
			c-10.1,0-18.3,8.3-18.3,18.3V351c0,10.1,8.3,18.3,18.3,18.3c10.1,0,18.3-8.3,18.3-18.3v-55.7c1.2,2.7,2.9,5.1,5,7.3l8.5,8.5
			l49.7,49.7c7.1,7.1,18.8,7.1,25.9,0C475.4,353.7,475.4,342,468.2,334.9z"/>
	</g>
        <g>
		<path class="st0" d="M253.2,227.8c-0.5-0.9-0.5-2.1,0-3c1.3-2.5,0.8-5.4-1-7.5c-5.1-5.6-10-10.8-13.7-14.5
			c-6.9-1.9-17,7.7-12.4,13.3c3.5,1.8,10.6,11,11,14.8c0.1,2.6-1.2,5.1-3.6,7.6c-1.4,4.7,7,13.4,8.2,9.8c0.8-2.3,1.3-5.4,1.8-8.7
			c-0.4-2.5-0.2-4.7,0.7-6.5c4.5,4.2,8.7,8.7,9.2,5.1c0.3-1.9,0.5-3.9,0.3-6.1C254,230.6,253.9,229.1,253.2,227.8z M244,229.3
			c0.2-3.1-8-12.1-12.8-20.3c2.9-0.4,7.8,3.5,13.9,10.2C247.4,222.2,246.7,226,244,229.3z"/>
	</g>
        <path class="st0" d="M253.2,227.8c-0.5-0.9-0.5-2.1,0-3c1.3-2.5,0.8-5.4-1-7.5c-5.1-5.6-10-10.8-13.8-14.5c-0.7-0.7-1.4-1.4-2-2
		c-1.3-1.3-4.7-1.2-7.2,0.3c-5.8,3.6-11.6,6.4-17.8,8.4c-2.6,0.8-3.7-0.1-3.4-2.4c1-5.9,0.8-11.5-1-17.6c-1.6-5.6-3-11.6-2.6-14.7
		c0.3-2.6,1.3-5.5,2.5-8.5c3.7,6.4,7.7,5.7,11.9,8.5c3,2,5.5,4.4,7.2,7.1c0.5,3.3,1.7,4,3.7,2.5c2,1.7,4.1,1.9,6,0.1
		c1.3-0.9,2.2-1.9,2.8-3c1.5-3.2-0.4-9.2-3.5-17.1c-2.6-6.5-5.3-12.5-7-18.3l3.5-6c0.4-0.6-0.3-1.3-1-1l-7,3.1l4.5-7.5
		c0.6-0.9-0.2-1.7-1.2-1.2l-8.5,4.7c0.3-8.3-9.5-3.9-11.1-11.3c-1,0.3-1.2,1.5-1.1,3.1c-2.1-1.9-3-4.6-2.6-8
		c-2.1,1.3-2.1,5.3-1.7,10.1c-1.8-1.4-2.9-3.9-3.7-6.8c-0.7,2.2-0.6,5.4,0.1,8.9c-2.2-1.5-4.7-2.2-7.5-2c-0.8-0.5-1-1.5-1.2-2.5
		c-1.2,1-1.8,2.7-1.6,4.9c-0.7-0.7-1.2-1.4-1.7-2.3c-0.4,0.7-0.7,1.7-0.9,2.8c-1.6-1.2-2-3.1-1.7-5.5c-3.7,3.1-4.4,7.5-2.9,13
		c-3-0.4-5.8-0.3-8.4,0.7c-1.3,0.5-2.7,0.5-4.2,0.3l0.1,1.1c-1-0.2-1.7-0.7-2.3-1.1c0,0.8,0.4,1.6,1,2.5c-0.5,0.1-0.9,0.1-1.2,0
		c0.1,0.7,0.6,1.2,1.2,1.8c-0.9,0.2-1.8,0.1-2.5-0.3c0,1.8,1.1,3.6,2.7,5.3c-1.2-0.3-2.5-1.1-3.9-2.1c0.1,1.9,1.9,4.1,4.8,6.3
		c-3-0.5-5.6-0.5-7.3,1.2c0.7,0.1,1.4,0.3,1.9,0.6c-1.9,1-3.7,2.4-5.5,4c1.1,0.3,2.1,0.2,3.1-0.3c-1.2,1.7-2.9,3.4-4.9,5
		c0.5,0.4,1.3,0.5,2.1,0.4c-0.5,1.2-1.4,2.5-2.5,3.8c1.3-0.4,2.5-0.8,3.6-1.4c-0.2,2-2.3,4.1-4.9,6.3c-1.2,1.4-2.1,3-2.6,4.9
		l1.9-0.4c-1,1.8-1.4,3.7-1.3,5.7c2.3-1.6,5-1.9,8.1-1c-13.7,10.6-30.8,22-49.1,24.6c-12.2,1.7-20.7,6.3-25.4,14.5
		c-4.8-0.9-7.8-3.6-9.7-7.2c-8.8-16.5-25.8-13.3-37.7-0.3c-4.1,4.4-8.8,3.4-11.1,1.4c-0.7,2.5,0.4,4.2,5,4.3
		c-3.1,2.2-6.6,2.8-10.6,1.5c0.2,1.2,1.9,2.4,5.3,3.5c-3,0.9-5.9,0.7-8.9-0.4c4.2,6.9,11.9,6.6,16.4,2.7c-3.2,5.5-9,8.4-14.5,8
		c2.8,3.6,7.4,3.5,13.6,0.2c-3.6,3.5-7.4,6.4-11.4,8.7c4.5,1,9.1,1.1,13.8,0.2c0.4,0.6,0,1.5-0.5,2.4c1.4,0.1,2.7-0.1,4.1-0.7
		c1.3,1.1,3.1,1.1,5.2-0.3c5.5-2.3,10.5-7.2,15.1-14.1c0,0.7-0.2,1.7-0.7,2.7c6.3-3,6.2-9.2,9.5-10.4c-0.1,1-0.4,1.9-0.9,2.8
		c0.8-0.1,1.6-0.3,2.2-0.8c0.1,0.8,0.7,1.5,1.7,1.9c1-1.3,5-0.2,6-2.1c0.8,2.8,1.7,4.5,3.7,4.5c-2.5,8.2-1.1,15.5,4.4,22
		c1.6,1.7,2.6,3.9,2.9,6.3l-0.1,4.6c-2.3,5-6.6,10.3-11.6,15.9c-1.2,1.3-1.6,3.2-0.9,4.8c2.7,7,4.6,14.1,5.6,21.1l-0.1,4.8
		c2.1,2.5,3.9,4.9,4.1,6.7c-0.1,1.6-0.7,3.2-1.5,4.8c-1.3,2.3,11.2,9.4,11.3,5.5c0.1-0.9,0-1.8-0.4-2.7c0.5-1.1,0.7-3.1,0.6-5.5
		c0-1.4-0.5-2.8-1.3-4c-4.1-6.1-6.5-12.3-7.1-19.6c-0.3-2.5-0.2-4.8,0.3-7.3c1.1-6.1,7.4-9.4,13.1-13.4c-2.5,5-5.4,10-8.6,14.9
		c-1.7,2.2-1.3,4.4,0.9,6.7c3.4,6.4,6.2,12.8,8.3,18.8c-0.1,3.3,0.6,5.9,3,7c1.7,1.1,2.7,3,2.2,6.6c-0.4,1.7-0.6,3.3,0.4,3.8
		c7.7,4.2,11.4,4.8,11.3,1.4c0-1-0.5-1.9-1.2-2.6c0.6-5.2-0.8-8.6-3.4-10.8c-4.9-5.9-8.7-12.4-9.7-22.2c-0.1-3.7,0.9-6.7,2.8-8.7
		c7.9-7.7,14.4-15.3,18.5-22.8c2-3.5,2.7-8.8,2.4-15.7c2.7,1,5.6,1.4,8.6,1.2v-34.9c0-10.1,8.3-18.4,18.3-18.4s18.3,8.3,18.3,18.4
		v25.5c9-2.5,16.9-6.4,23.5-11.9c4.4,0.6,7.9-0.2,10.2-2.7c7.4,0.6,13.3-6.1,18.8-15.5c0.3,0,0.6,0.1,1,0.3c3.5,1.8,10.6,11,11,14.8
		c0.1,2.6-1.2,5.1-3.6,7.6c-1.4,4.7,7,13.4,8.2,9.8c0.8-2.4,1.3-5.4,1.8-8.7c-0.4-2.5-0.2-4.7,0.7-6.5c4.4,4.2,8.7,8.7,9.2,5.1
		c0.3-1.9,0.5-3.9,0.3-6.1C254,230.6,253.9,229.1,253.2,227.8z M244,229.3c0.2-3.1-8-12.1-12.8-20.3c2.9-0.4,7.7,3.5,13.9,10.2
		C247.4,222.2,246.7,226,244,229.3z"/>
</g>
</svg>